<svg width="52" height="20" viewBox="0 0 52 20" fill="none" xmlns="http://www.w3.org/2000/svg">
<path d="M1.84 15V1.24H4.1V13.02H10.2V15H1.84ZM16.5213 15.16C15.6679 15.16 14.9546 15.1067 14.3813 15C13.8213 14.8933 13.3746 14.7267 13.0413 14.5C12.7213 14.26 12.4813 13.94 12.3213 13.54C12.1746 13.14 12.0746 12.64 12.0213 12.04C11.9813 11.44 11.9613 10.72 11.9613 9.88C11.9613 9.05333 11.9813 8.34 12.0213 7.74C12.0746 7.14 12.1746 6.64 12.3213 6.24C12.4813 5.84 12.7213 5.52667 13.0413 5.3C13.3746 5.06 13.8213 4.89333 14.3813 4.8C14.9546 4.69333 15.6679 4.64 16.5213 4.64C17.3879 4.64 18.1013 4.69333 18.6613 4.8C19.2346 4.89333 19.6813 5.06 20.0013 5.3C20.3346 5.52667 20.5746 5.84 20.7213 6.24C20.8813 6.64 20.9813 7.14 21.0213 7.74C21.0746 8.34 21.1013 9.05333 21.1013 9.88C21.1013 10.72 21.0746 11.44 21.0213 12.04C20.9813 12.64 20.8813 13.14 20.7213 13.54C20.5746 13.94 20.3346 14.26 20.0013 14.5C19.6813 14.7267 19.2346 14.8933 18.6613 15C18.1013 15.1067 17.3879 15.16 16.5213 15.16ZM16.5213 13.38C17.1346 13.38 17.6079 13.34 17.9413 13.26C18.2746 13.18 18.5079 13.02 18.6413 12.78C18.7879 12.54 18.8746 12.1867 18.9013 11.72C18.9413 11.2533 18.9613 10.64 18.9613 9.88C18.9613 9.12 18.9413 8.51333 18.9013 8.06C18.8746 7.59333 18.7879 7.24 18.6413 7C18.5079 6.76 18.2746 6.60667 17.9413 6.54C17.6079 6.46 17.1346 6.42 16.5213 6.42C15.9213 6.42 15.4546 6.46 15.1213 6.54C14.7879 6.60667 14.5479 6.76 14.4013 7C14.2679 7.24 14.1813 7.59333 14.1413 8.06C14.1146 8.51333 14.1013 9.12 14.1013 9.88C14.1013 10.64 14.1146 11.2533 14.1413 11.72C14.1813 12.1867 14.2679 12.54 14.4013 12.78C14.5479 13.02 14.7879 13.18 15.1213 13.26C15.4546 13.34 15.9213 13.38 16.5213 13.38ZM27.6652 19.12C27.2385 19.12 26.8052 19.1067 26.3652 19.08C25.9252 19.0667 25.5118 19.04 25.1252 19C24.7385 18.9733 24.4118 18.9467 24.1452 18.92V17.24C24.4252 17.2667 24.7452 17.2867 25.1052 17.3C25.4652 17.3133 25.8252 17.32 26.1852 17.32C26.5452 17.3333 26.8785 17.34 27.1852 17.34C27.9052 17.34 28.4718 17.2933 28.8852 17.2C29.3118 17.12 29.6252 16.9667 29.8252 16.74C30.0385 16.5267 30.1718 16.2133 30.2252 15.8C30.2918 15.3867 30.3252 14.8533 30.3252 14.2V13.7H30.2052C30.0185 14.06 29.7718 14.34 29.4652 14.54C29.1718 14.74 28.8252 14.88 28.4252 14.96C28.0252 15.04 27.5852 15.08 27.1052 15.08C26.4118 15.08 25.8318 15 25.3652 14.84C24.9118 14.6667 24.5452 14.3867 24.2652 14C23.9852 13.6133 23.7785 13.0867 23.6452 12.42C23.5252 11.7533 23.4652 10.9133 23.4652 9.9C23.4652 8.87333 23.5252 8.02667 23.6452 7.36C23.7785 6.68 23.9852 6.14667 24.2652 5.76C24.5452 5.36 24.9185 5.07333 25.3852 4.9C25.8518 4.72667 26.4318 4.64 27.1252 4.64C27.5252 4.64 27.9318 4.68 28.3452 4.76C28.7585 4.82667 29.1318 4.97333 29.4652 5.2C29.8118 5.41333 30.0852 5.73333 30.2852 6.16H30.4052L30.4852 4.8H32.4452V13.74C32.4452 14.7 32.3985 15.52 32.3052 16.2C32.2118 16.88 32.0052 17.4333 31.6852 17.86C31.3652 18.2867 30.8852 18.6 30.2452 18.8C29.6185 19.0133 28.7585 19.12 27.6652 19.12ZM27.9652 13.22C28.5118 13.22 28.9452 13.1533 29.2652 13.02C29.5852 12.8733 29.8185 12.66 29.9652 12.38C30.1252 12.1 30.2252 11.76 30.2652 11.36C30.3052 10.9467 30.3252 10.4533 30.3252 9.88C30.3252 9.33333 30.3052 8.85333 30.2652 8.44C30.2252 8.02667 30.1318 7.68 29.9852 7.4C29.8252 7.09333 29.5785 6.87333 29.2452 6.74C28.9252 6.59333 28.4985 6.52 27.9652 6.52C27.4452 6.52 27.0252 6.56 26.7052 6.64C26.3985 6.70667 26.1652 6.85333 26.0052 7.08C25.8452 7.30667 25.7385 7.64 25.6852 8.08C25.6318 8.52 25.6052 9.12 25.6052 9.88C25.6052 10.6267 25.6318 11.22 25.6852 11.66C25.7385 12.1 25.8452 12.4333 26.0052 12.66C26.1652 12.8867 26.3985 13.04 26.7052 13.12C27.0252 13.1867 27.4452 13.22 27.9652 13.22ZM35.5634 2.24V0.139999H37.7834V2.24H35.5634ZM35.6034 15V4.8H37.7234V15H35.6034ZM40.8769 15V4.8H42.8369L42.8969 6.16H43.0569C43.2169 5.82667 43.4302 5.55333 43.6969 5.34C43.9635 5.11333 44.3102 4.94 44.7369 4.82C45.1635 4.7 45.6835 4.64 46.2969 4.64C47.0169 4.64 47.5969 4.72667 48.0369 4.9C48.4769 5.06 48.8102 5.30667 49.0369 5.64C49.2635 5.97333 49.4169 6.38667 49.4969 6.88C49.5902 7.37333 49.6369 7.95333 49.6369 8.62V15H47.4969V9.46C47.4969 8.79333 47.4702 8.26667 47.4169 7.88C47.3769 7.48 47.2835 7.18667 47.1369 7C46.9902 6.8 46.7702 6.67333 46.4769 6.62C46.1969 6.56667 45.8169 6.54 45.3369 6.54C44.8035 6.54 44.3769 6.60667 44.0569 6.74C43.7502 6.87333 43.5169 7.07333 43.3569 7.34C43.2102 7.60667 43.1102 7.94 43.0569 8.34C43.0169 8.74 42.9969 9.20667 42.9969 9.74V15H40.8769Z" fill="#4A4A4A"/>
<path d="M0 18.54H51.2169V19.24H0V18.54Z" fill="#4A4A4A"/>
</svg>
